# xmcd
#
# Track frame offsets:
#	150
#	15412
#	26116
#	44492
#	56034
#	70800
#	82332
#	96349
#	109141
#	124205
#	136824
#	150188
#	165455
#
# Disc length: 2358 seconds
#
# Revision: 1
# Processed by: cddbd v1.5.2PL0 Copyright (c) Steve Scherf et al.
# Submitted via: audiograbber 1.83.01
#
DISCID=aa09340d
DTITLE=Glen Campbell - That Christmas Feeling
DYEAR=1968
DGENRE=Christmas
TTITLE0=Christmas Is for Children
TTITLE1=Old Toy Trains
TTITLE2=Little Altar Boy
TTITLE3=It Must Be Getting Close to Christmas
TTITLE4=Have Yourself a Merry Little Christmas
TTITLE5=Blue Christmas
TTITLE6=The Christmas Song (Merry Christmas to You)
TTITLE7=Pretty Paper
TTITLE8=There's No Place Like Home
TTITLE9=I'll Be Home for Christmas
TTITLE10=Christmas Day
TTITLE11=The Night Before Christmas
TTITLE12=Silent Night
EXTD=
EXTT0=
EXTT1=
EXTT2=
EXTT3=
EXTT4=
EXTT5=
EXTT6=
EXTT7=
EXTT8=
EXTT9=
EXTT10=
EXTT11=
EXTT12=
PLAYORDER=
